{
    "asset" : {
        "generator" : "Khronos glTF Blender I/O v3.3.32",
        "version" : "2.0"
    },
    "scene" : 0,
    "scenes" : [
        {
            "name" : "Scene",
            "nodes" : [
                6
            ]
        }
    ],
    "nodes" : [
        {
            "name" : "Lamp.001"
        },
        {
            "children" : [
                0
            ],
            "name" : "Lamp",
            "rotation" : [
                0.16907446086406708,
                0.27217066287994385,
                0.7558797597885132,
                0.5709490180015564
            ],
            "scale" : [
                0.9999975562095642,
                0.9999958276748657,
                0.9999960660934448
            ],
            "translation" : [
                4.076250076293945,
                1.0054500102996826,
                5.903860092163086
            ]
        },
        {
            "mesh" : 0,
            "name" : "Sphere.001",
            "scale" : [
                0.3460814952850342,
                0.3460814952850342,
                0.3460814952850342
            ]
        },
        {
            "children" : [
                2
            ],
            "name" : "Sphere",
            "translation" : [
                -0.7278800010681152,
                0,
                1.1660900115966797
            ]
        },
        {
            "name" : "Sun.001"
        },
        {
            "children" : [
                4
            ],
            "name" : "Sun",
            "translation" : [
                -0.5439199805259705,
                1.8210699558258057,
                3.568579912185669
            ]
        },
        {
            "children" : [
                1,
                3,
                5
            ],
            "name" : "Sphere.002",
            "rotation" : [
                -0.7071068286895752,
                0,
                0,
                0.7071067094802856
            ]
        }
    ],
    "materials" : [
        {
            "doubleSided" : true,
            "name" : "Root",
            "pbrMetallicRoughness" : {
                "baseColorFactor" : [
                    0.5,
                    0.5,
                    0.5,
                    1
                ],
                "metallicFactor" : 0,
                "roughnessFactor" : 0.6000000238418579
            }
        }
    ],
    "meshes" : [
        {
            "name" : "Sphere",
            "primitives" : [
                {
                    "attributes" : {
                        "POSITION" : 0,
                        "NORMAL" : 1
                    },
                    "indices" : 2,
                    "material" : 0
                }
            ]
        }
    ],
    "accessors" : [
        {
            "bufferView" : 0,
            "componentType" : 5126,
            "count" : 1984,
            "max" : [
                1,
                1,
                1
            ],
            "min" : [
                -1,
                -1,
                -1
            ],
            "type" : "VEC3"
        },
        {
            "bufferView" : 1,
            "componentType" : 5126,
            "count" : 1984,
            "type" : "VEC3"
        },
        {
            "bufferView" : 2,
            "componentType" : 5123,
            "count" : 2880,
            "type" : "SCALAR"
        }
    ],
    "bufferViews" : [
        {
            "buffer" : 0,
            "byteLength" : 23808,
            "byteOffset" : 0,
            "target" : 34962
        },
        {
            "buffer" : 0,
            "byteLength" : 23808,
            "byteOffset" : 23808,
            "target" : 34962
        },
        {
            "buffer" : 0,
            "byteLength" : 5760,
            "byteOffset" : 47616,
            "target" : 34963
        }
    ],
    "buffers" : [
        {
            "byteLength" : 53376,
            "uri" : "data:application/octet-stream;base64,"
        }
    ]
}
